<svg width="202" height="205" version="1.1" xmlns="http://www.w3.org/2000/svg" desc="Created with imagetracer.js version 1.2.6" ><path fill="rgb(0,0,0)" stroke="rgb(0,0,0)" stroke-width="1" opacity="1" d="M 0 0 L 202 0 L 202 205 L 0 205 L 0 88.5 L 1 85.5 L 0 84.5 L 0 0 Z M 24 64 L 24 66 L 27 68 L 26 68 L 17 77 L 14 84 Q 12 92 15 96 L 14 95 L 12 96 L 14 99 L 16 98 L 18 103 Q 23 110 33 113 L 44 112 L 53 108 L 59 100 Q 58 97 61 98 L 62 102 L 63 102 L 60 96 L 62 96 L 61 94 L 61 83 Q 57 81 60 80 L 51 70 L 53 69 L 43 66 L 39 64 L 34 66 L 30 66 L 28 66 Q 25 67 26 64 L 24 64 Z M 45 64 L 45 65 L 49 67 L 49 65 L 52 65 L 45 64 Z M 142 64 L 143 66 L 145 65 L 142 64 Z M 148 64 L 147 66 L 150 65 L 148 64 Z M 172 64 L 169 65 L 167 65 L 158 65 L 145 71 L 142 77 L 138 80 L 140 81 L 138 87 L 139 98 L 142 103 Q 146 109 155 112 L 167 112 L 168 113 L 173 110 Q 174 106 176 110 L 176 111 L 174 110 L 175 112 L 182 112 L 182 110 L 178 111 L 176 108 L 178 107 L 182 100 L 184 100 L 183 98 L 186 92 L 186 85 L 188 83 Q 189 78 185 80 L 185 85 L 183 79 L 178 73 L 178 70 L 175 69 Q 172 70 173 67 L 172 67 L 170 67 L 174 65 L 172 64 Z M 182 65 Q 181 68 184 67 Q 185 64 182 65 Z M 149 66 Q 147 69 150 68 L 149 66 Z M 176 66 Q 175 69 178 68 Q 179 65 176 66 Z M 16 67 L 16 72 L 18 72 L 18 67 L 16 67 Z M 188 67 L 184 68 L 187 73 L 190 72 Q 194 73 192 69 L 191 69 L 188 67 Z M 60 72 L 59 75 L 60 75 L 60 72 Z M 63 72 L 61 78 L 64 76 L 63 72 Z M 137 72 Q 138 76 135 75 Q 134 79 137 80 L 139 73 L 137 72 Z M 132 80 L 132 88 L 134 87 Q 136 79 132 80 Z M 189 81 L 189 83 L 191 82 L 189 81 Z M 189 84 L 187 89 L 188 96 L 189 96 L 189 84 Z M 63 85 L 63 91 L 63 88 Q 65 86 63 85 Z M 134 89 L 133 96 L 134 96 L 134 89 Z M 138 94 L 137 98 L 136 97 L 135 97 Q 134 102 137 103 L 138 99 L 138 94 Z M 60 100 L 59 103 L 60 103 L 60 100 Z M 17 106 L 16 109 L 16 111 L 17 112 L 19 111 L 17 106 Z M 20 106 Q 17 110 22 109 L 20 106 Z M 22 109 L 22 111 L 25 111 L 22 109 Z M 148 109 Q 146 112 149 111 L 148 109 Z M 20 111 L 20 112 L 22 112 L 20 111 Z M 65 112 L 65 113 L 67 113 L 65 112 Z M 114 112 L 114 113 L 120 113 L 114 112 Z M 65 114 L 65 115 L 68 115 L 65 114 Z M 117 114 L 117 115 L 120 115 L 117 114 Z M 72 115 L 71 117 L 80 117 L 72 115 Z M 97 116 L 97 118 Q 98 121 96 120 L 96 122 L 94 121 L 89 122 L 89 121 L 87 120 L 87 122 L 79 118 Q 69 116 66 121 L 66 120 L 64 119 L 62 127 Q 61 134 67 136 L 70 135 L 69 133 L 71 133 L 73 132 L 73 133 Q 69 132 71 136 Q 74 137 73 135 L 74 135 Q 75 141 72 144 L 74 144 L 73 152 L 73 154 L 74 157 L 73 160 L 76 160 L 89 160 L 89 158 L 89 156 L 89 145 L 90 144 L 89 140 L 90 135 L 92 136 L 91 135 L 94 133 L 93 135 L 95 135 L 96 132 L 96 135 L 97 135 Q 95 129 99 130 L 98 132 L 99 136 L 99 134 L 103 136 L 106 135 L 106 152 L 107 152 L 107 135 L 109 134 L 110 137 L 110 140 L 109 136 L 108 156 L 107 157 L 108 158 L 109 157 L 110 144 L 110 159 L 112 160 L 124 160 L 126 160 L 125 158 Q 124 154 127 155 L 127 152 L 126 154 L 125 154 L 126 145 L 128 143 L 128 141 L 125 142 L 124 139 L 125 137 L 125 139 L 127 139 L 125 136 L 130 134 Q 131 130 133 133 L 135 132 L 133 131 L 134 129 L 137 128 L 136 124 L 136 118 L 134 118 Q 131 119 133 121 L 131 121 L 130 118 L 129 120 L 127 121 L 129 122 L 127 122 L 127 124 L 122 121 Q 119 122 120 120 L 119 120 L 115 118 Q 106 117 103 120 L 97 116 Z M 101 116 Q 100 119 103 118 Q 104 115 101 116 Z M 107 116 L 107 117 L 112 117 L 107 116 Z M 115 116 L 115 117 L 117 117 L 115 116 Z M 65 117 L 65 118 L 69 118 L 65 117 Z M 118 117 L 118 118 L 120 118 L 118 117 Z M 59 121 L 58 125 L 59 125 L 59 121 Z M 62 121 L 61 124 L 62 124 L 62 121 Z M 57 128 L 56 132 L 57 132 L 57 128 Z M 59 128 L 58 131 L 59 131 L 59 128 Z M 127 135 L 127 137 L 129 136 L 127 135 Z M 95 136 L 94 140 L 95 140 L 95 136 Z M 92 142 Q 90 145 93 144 L 92 142 Z M 94 144 L 93 152 L 94 152 L 94 144 Z M 94 154 L 93 160 L 94 160 L 94 154 Z M 91 157 L 90 160 L 91 160 L 91 157 Z " /><path fill="rgb(0,0,0)" stroke="rgb(0,0,0)" stroke-width="1" opacity="1" d="M 28.5 71 L 40 79.5 Q 46.5 87.5 49 99.5 L 48.5 101 L 50 101.5 L 46.5 106 Q 39.9 105.1 37 100.5 L 34 96.5 L 34 94 L 31 92.5 L 25 77.5 L 25 75.5 L 28 72.5 L 28.5 71 Z M 32 77 L 30 82 L 32 82 Q 31 79 34 80 L 32 77 Z M 36 77 Q 34 80 37 79 L 36 77 Z M 29 81 L 31 88 L 32 86 Q 33 83 30 84 L 29 81 Z M 42 91 L 41 92 L 39 92 L 39 97 L 37 97 Q 36 100 39 99 L 41 94 L 41 98 L 41 99 L 43 98 L 45 98 L 45 93 L 44 93 Q 45 95 42 94 L 42 91 Z " /><path fill="rgb(0,0,0)" stroke="rgb(0,0,0)" stroke-width="1" opacity="1" d="M 151.5 72 L 153.5 72 Q 157.5 71.5 158 74.5 L 155 75 L 154 78.5 L 157.5 80 L 157 78.5 Q 156.3 76.3 158.5 77 Q 160.2 74.3 162 78.5 Q 159.8 79.8 162.5 81 L 164 80.5 L 163.5 82 L 168 85.5 L 173 96.5 L 173 102.5 L 173 104.5 Q 173.8 106.8 171.5 106 L 171.5 104 Q 168.9 103.3 170 106 L 167.5 106 L 162 102 L 152 87.5 L 149 77.5 L 150 75.5 Q 147.2 73.8 151.5 72 Z M 161 80 L 159 84 L 160 86 L 161 84 L 161 86 L 163 87 L 161 80 Z M 157 89 L 156 92 L 157 92 L 157 89 Z M 160 90 L 159 94 L 160 94 L 160 90 Z M 165 94 Q 164 97 167 96 Q 168 93 165 94 Z M 164 96 L 166 99 Q 168 100 167 97 L 164 96 Z M 168 96 L 170 101 L 172 101 L 171 99 L 169 99 Q 170 95 168 96 Z M 164 99 L 164 101 Q 163 103 166 102 L 165 101 Q 166 98 164 99 Z " /><path fill="rgb(22,79,50)" stroke="rgb(22,79,50)" stroke-width="1" opacity="1" d="M 31.5 66 L 43.5 66 Q 50.9 68.1 55 73.5 L 60 82.5 L 60 94.5 Q 57.3 104.3 49.5 109 Q 44 113.5 32.5 112 L 21 106 L 15 94.5 L 15 83.5 Q 17.3 75.8 22.5 71 L 31.5 66 Z M 32 67 L 28 69 L 25 74 L 25 80 L 27 86 L 35 99 L 44 106 L 49 106 L 50 104 Q 47 82 33 73 L 35 73 Q 37 72 36 75 L 39 76 Q 47 84 51 98 Q 53 104 50 106 L 51 107 Q 57 103 59 95 Q 61 82 56 77 Q 52 69 44 67 L 32 67 Z M 25 71 Q 18 75 16 84 Q 14 96 19 102 Q 24 108 33 111 Q 43 113 48 109 L 42 106 Q 29 97 24 80 Q 23 74 25 73 L 25 71 Z " /><path fill="rgb(22,79,50)" stroke="rgb(22,79,50)" stroke-width="1" opacity="1" d="M 155.5 66 L 167.5 66 L 179 73.5 L 184 83.5 L 184 93.5 L 183 93.5 Q 184.5 75.5 173.5 70 Q 168 65 155.5 67 L 153.5 68 L 153.5 67 L 155.5 66 Z " /><path fill="rgb(22,79,50)" stroke="rgb(22,79,50)" stroke-width="1" opacity="1" d="M 151.5 68 L 151.5 70 Q 159.8 71.7 164 77.5 L 174 94.5 L 175 104.5 L 173.5 107 L 179 102.5 L 182.5 95 L 183 97.5 L 178 106 L 167.5 111 L 167.5 110 L 172 108.5 L 166.5 107 L 161 103 L 152 90.5 L 149 83.5 L 148 72 Q 145.3 70.9 146 73.5 L 140 82.5 L 139.5 95 L 139 82.5 Q 141.4 74.4 147.5 70 L 151.5 68 Z M 152 71 L 149 74 L 149 80 L 151 86 L 157 97 Q 161 104 170 107 Q 174 108 174 105 L 173 95 L 165 81 Q 161 73 152 71 Z " /><path fill="rgb(22,79,50)" stroke="rgb(22,79,50)" stroke-width="1" opacity="1" d="M 28.5 70 L 32 71.5 L 30.5 72 L 28.5 70 Z " /><path fill="rgb(22,79,50)" stroke="rgb(22,79,50)" stroke-width="1" opacity="1" d="M 140.5 96 Q 143.4 103.6 149.5 108 Q 155.3 112.3 166 111.5 L 156.5 112 L 145 106 L 140 97.5 L 140.5 96 Z " /><path fill="rgb(22,79,50)" stroke="rgb(22,79,50)" stroke-width="1" opacity="1" d="M 69.5 119 L 79 119.5 L 69.5 120 L 65 123.5 L 64 131.5 L 64.5 133 Q 61.5 131.5 63 125.5 L 67.5 120 L 69.5 119 Z " /><path fill="rgb(22,79,50)" stroke="rgb(22,79,50)" stroke-width="1" opacity="1" d="M 98.5 119 L 100.5 123 Q 103.5 117 114.5 119 L 114.5 120 Q 104 118 101 123.5 L 100.5 125 L 98.5 120 L 97 120.5 L 98.5 119 Z " /><path fill="rgb(22,79,50)" stroke="rgb(22,79,50)" stroke-width="1" opacity="1" d="M 134.5 119 Q 137.9 118.1 136 123.5 L 135 123.5 L 134.5 120 L 133 120.5 L 134.5 119 Z " /><path fill="rgb(22,79,50)" stroke="rgb(22,79,50)" stroke-width="1" opacity="1" d="M 96.5 122 L 94.5 125 L 93 124.5 L 96.5 122 Z " /><path fill="rgb(22,79,50)" stroke="rgb(22,79,50)" stroke-width="1" opacity="1" d="M 132.5 122 L 130.5 125 L 129 124.5 L 132.5 122 Z " /><path fill="rgb(22,79,50)" stroke="rgb(22,79,50)" stroke-width="1" opacity="1" d="M 87.5 123 L 91 124.5 L 88.5 125 L 87.5 123 Z " /><path fill="rgb(22,79,50)" stroke="rgb(22,79,50)" stroke-width="1" opacity="1" d="M 98.5 125 Q 101 126 100 130.5 L 99 130.5 L 98.5 127 L 93.5 133 L 90.5 134 L 90.5 133 L 97 128.5 L 98.5 125 Z " /><path fill="rgb(22,79,50)" stroke="rgb(22,79,50)" stroke-width="1" opacity="1" d="M 133.5 128 L 129.5 133 L 126.5 134 L 126.5 133 L 133.5 128 Z " /><path fill="rgb(22,79,50)" stroke="rgb(22,79,50)" stroke-width="1" opacity="1" d="M 68.5 130 L 72 130.5 L 68.5 131 L 68.5 130 Z " /><path fill="rgb(22,79,50)" stroke="rgb(22,79,50)" stroke-width="1" opacity="1" d="M 105.5 130 L 108 130.5 L 104.5 132 L 105.5 130 Z " /><path fill="rgb(22,79,50)" stroke="rgb(22,79,50)" stroke-width="1" opacity="1" d="M 73.5 131 L 74.5 133 L 73.5 131 Z " /><path fill="rgb(22,79,50)" stroke="rgb(22,79,50)" stroke-width="1" opacity="1" d="M 109.5 131 Q 112.1 130.2 111 133.5 L 110 133.5 L 109.5 131 Z " /><path fill="rgb(22,79,50)" stroke="rgb(22,79,50)" stroke-width="1" opacity="1" d="M 100.5 132 L 104 134.5 L 104.5 133 L 105 134.5 L 103.5 136 L 100.5 132 Z " /><path fill="rgb(22,79,50)" stroke="rgb(22,79,50)" stroke-width="1" opacity="1" d="M 68.5 133 L 69 134.5 L 67 135.5 L 68.5 133 Z " /><path fill="rgb(22,79,50)" stroke="rgb(22,79,50)" stroke-width="1" opacity="1" d="M 78 133 Q 80.7 131.9 80 134.5 L 81.5 134 L 89 134.5 L 81 135.5 L 84 136.5 L 81.5 137 L 78 134.5 L 78 133 Z " /><path fill="rgb(22,79,50)" stroke="rgb(22,79,50)" stroke-width="1" opacity="1" d="M 114 133 Q 116.7 131.9 116 134.5 L 120 136.5 L 117.5 137 L 114 134.5 L 114 133 Z " /><path fill="rgb(22,79,50)" stroke="rgb(22,79,50)" stroke-width="1" opacity="1" d="M 118.5 134 L 125 134.5 L 118.5 135 L 118.5 134 Z " /><path fill="rgb(22,79,50)" stroke="rgb(22,79,50)" stroke-width="1" opacity="1" d="M 85.5 137 L 88 138.5 L 87.5 140 L 87 138 L 85.5 137 Z " /><path fill="rgb(22,79,50)" stroke="rgb(22,79,50)" stroke-width="1" opacity="1" d="M 121.5 137 L 124 138.5 L 122.5 138 L 121.5 137 Z " /><path fill="rgb(22,79,50)" stroke="rgb(22,79,50)" stroke-width="1" opacity="1" d="M 74.5 139 L 75 151.5 L 74 151.5 L 74.5 139 Z " /><path fill="rgb(22,79,50)" stroke="rgb(22,79,50)" stroke-width="1" opacity="1" d="M 124.5 140 L 125 143.5 L 124 143.5 L 124.5 140 Z " /><path fill="rgb(22,79,50)" stroke="rgb(22,79,50)" stroke-width="1" opacity="1" d="M 74.5 153 L 75 155.5 L 74 155.5 L 74.5 153 Z " /><path fill="rgb(22,79,50)" stroke="rgb(22,79,50)" stroke-width="1" opacity="1" d="M 110.5 153 L 112 158.5 L 110 157.5 L 110.5 153 Z " /><path fill="rgb(22,79,50)" stroke="rgb(22,79,50)" stroke-width="1" opacity="1" d="M 124.5 154 L 125 157.5 L 123 158.5 L 124.5 154 Z " /><path fill="rgb(7,7,6)" stroke="rgb(7,7,6)" stroke-width="1" opacity="1" d="M 24 64 L 26 64 Q 24.9 66.7 27.5 66 L 29.5 66 L 31 66.5 L 23.5 71 L 23.5 68 L 25.5 68 L 27 67.5 L 24 65.5 L 24 64 Z " /><path fill="rgb(7,7,6)" stroke="rgb(7,7,6)" stroke-width="1" opacity="1" d="M 32.5 64 L 35.5 65 L 38.5 64 L 42 65.5 L 34.5 66 L 32.5 64 Z " /><path fill="rgb(7,7,6)" stroke="rgb(7,7,6)" stroke-width="1" opacity="1" d="M 44.5 64 Q 51.3 62.7 54 65.5 L 52.5 66 L 49 65 L 47.5 68 L 44 66.5 L 46 65.5 L 44.5 64 Z " /><path fill="rgb(7,7,6)" stroke="rgb(7,7,6)" stroke-width="1" opacity="1" d="M 141.5 64 L 145 64.5 L 142.5 66 L 141.5 64 Z " /><path fill="rgb(7,7,6)" stroke="rgb(7,7,6)" stroke-width="1" opacity="1" d="M 147.5 64 L 150 64.5 L 148 65.5 L 150.5 69 L 148 68 Q 149.1 65.3 146.5 66 L 147.5 64 Z " /><path fill="rgb(7,7,6)" stroke="rgb(7,7,6)" stroke-width="1" opacity="1" d="M 167.5 64 L 170.5 65 L 173.5 64 L 173.5 65 L 172 65.5 L 173 68.5 L 171.5 68 L 168 67 L 167.5 65 L 166.5 66 L 157.5 66 L 157.5 65 L 166.5 65 L 167.5 64 Z " /><path fill="rgb(7,7,6)" stroke="rgb(7,7,6)" stroke-width="1" opacity="1" d="M 175.5 65 L 178 66 Q 179.1 68.7 176.5 68 L 175.5 70 Q 179.3 69 178 72 L 174 69.5 L 176 66.5 L 175.5 65 Z " /><path fill="rgb(7,7,6)" stroke="rgb(7,7,6)" stroke-width="1" opacity="1" d="M 182 65 Q 185 64 184 67 Q 181 68 182 65 Z " /><path fill="rgb(7,7,6)" stroke="rgb(7,7,6)" stroke-width="1" opacity="1" d="M 18.5 66 L 20 66.5 L 18 67 L 18 72 L 16 72 L 16 67 L 17.5 67 L 18.5 66 Z " /><path fill="rgb(7,7,6)" stroke="rgb(7,7,6)" stroke-width="1" opacity="1" d="M 187.5 67 L 190.5 69 L 192 68.5 Q 193.7 73.3 189.5 72 L 186.5 73 L 184 68 L 187.5 67 Z " /><path fill="rgb(7,7,6)" stroke="rgb(7,7,6)" stroke-width="1" opacity="1" d="M 49.5 68 L 53 68.5 L 51 69.5 L 51.5 71 L 49.5 68 Z " /><path fill="rgb(7,7,6)" stroke="rgb(7,7,6)" stroke-width="1" opacity="1" d="M 144.5 70 L 145.5 72 L 144.5 70 Z " /><path fill="rgb(7,7,6)" stroke="rgb(7,7,6)" stroke-width="1" opacity="1" d="M 27.5 71 L 28 72.5 L 25 74.5 L 27.5 71 Z " /><path fill="rgb(7,7,6)" stroke="rgb(7,7,6)" stroke-width="1" opacity="1" d="M 151.5 71 L 154 71.5 L 152 74.5 L 153 76.5 L 152 76.5 L 150.5 73 L 149 73.5 L 151.5 71 Z " /><path fill="rgb(7,7,6)" stroke="rgb(7,7,6)" stroke-width="1" opacity="1" d="M 32.5 72 L 37 76.5 L 36.5 79 Q 34.3 79.8 35 77.5 Q 37.3 76.3 34.5 75 L 32.5 76 L 32.5 75 L 34 74.5 L 31 73.5 L 32.5 72 Z " /><path fill="rgb(7,7,6)" stroke="rgb(7,7,6)" stroke-width="1" opacity="1" d="M 59.5 72 L 60 74.5 L 59 74.5 L 59.5 72 Z " /><path fill="rgb(7,7,6)" stroke="rgb(7,7,6)" stroke-width="1" opacity="1" d="M 62.5 72 L 64 75.5 L 61 77.5 L 62.5 72 Z " /><path fill="rgb(7,7,6)" stroke="rgb(7,7,6)" stroke-width="1" opacity="1" d="M 137 72 L 139 72.5 L 136.5 80 Q 134 78.8 135 75 Q 138.3 76.1 137 72 Z " /><path fill="rgb(7,7,6)" stroke="rgb(7,7,6)" stroke-width="1" opacity="1" d="M 157.5 73 L 168 84.5 L 164.5 82 L 161.5 80 L 161 82.5 L 164 87.5 L 161 86.5 L 160.5 88 L 159 83.5 L 161 79.5 L 159 78.5 L 161 77.5 Q 159.8 74.8 158.5 77 Q 156.3 76.3 157 78.5 L 157.5 80 L 154 78.5 L 155 75.5 L 154.5 74 L 157.5 75 L 157.5 73 Z " /><path fill="rgb(7,7,6)" stroke="rgb(7,7,6)" stroke-width="1" opacity="1" d="M 19.5 74 L 18 76.5 L 17.5 78 L 17 76.5 L 19.5 74 Z " /><path fill="rgb(7,7,6)" stroke="rgb(7,7,6)" stroke-width="1" opacity="1" d="M 55.5 74 L 57.5 77 L 55.5 74 Z " /><path fill="rgb(7,7,6)" stroke="rgb(7,7,6)" stroke-width="1" opacity="1" d="M 143.5 74 L 142.5 76 L 143.5 74 Z " /><path fill="rgb(7,7,6)" stroke="rgb(7,7,6)" stroke-width="1" opacity="1" d="M 179.5 74 L 180.5 76 L 179.5 74 Z " /><path fill="rgb(7,7,6)" stroke="rgb(7,7,6)" stroke-width="1" opacity="1" d="M 183.5 76 L 184 77.5 L 182.5 80 L 181 77.5 L 183 77.5 L 183.5 76 Z " /><path fill="rgb(7,7,6)" stroke="rgb(7,7,6)" stroke-width="1" opacity="1" d="M 31.5 77 L 33.5 80 Q 30.9 79.3 32 82 L 30 82 L 30 84 Q 32.7 82.9 32 85.5 L 30.5 88 L 28 81.5 L 30 81.5 L 31.5 77 Z " /><path fill="rgb(7,7,6)" stroke="rgb(7,7,6)" stroke-width="1" opacity="1" d="M 58.5 78 L 59.5 80 Q 56.7 80.7 58.5 78 Z " /><path fill="rgb(7,7,6)" stroke="rgb(7,7,6)" stroke-width="1" opacity="1" d="M 139.5 78 Q 142.1 77.3 141 80 L 138 79.5 L 139.5 78 Z " /><path fill="rgb(7,7,6)" stroke="rgb(7,7,6)" stroke-width="1" opacity="1" d="M 151.5 78 Q 154.3 79.3 152 80.5 L 150.5 83 L 151 81.5 L 152 79.5 L 151.5 78 Z " /><path fill="rgb(7,7,6)" stroke="rgb(7,7,6)" stroke-width="1" opacity="1" d="M 16.5 79 L 16 80.5 L 14.5 94 L 14 83.5 L 16.5 79 Z " /><path fill="rgb(7,7,6)" stroke="rgb(7,7,6)" stroke-width="1" opacity="1" d="M 132 80 Q 135.5 78.9 134 86.5 L 132 87.5 L 132 80 Z " /><path fill="rgb(7,7,6)" stroke="rgb(7,7,6)" stroke-width="1" opacity="1" d="M 185 80 Q 189.1 78.3 188 82.5 L 186 84.5 Q 187.8 91.3 184.5 93 L 184 85.5 L 185 80 Z " /><path fill="rgb(7,7,6)" stroke="rgb(7,7,6)" stroke-width="1" opacity="1" d="M 59.5 81 L 61 82.5 L 61 93.5 L 62 95.5 L 62 97.5 L 63 101.5 L 62 101.5 L 61 98 Q 58.3 96.9 59 99.5 L 60 102.5 L 59 102.5 L 58.5 100 L 53 107.5 L 55 107.5 Q 53.7 110.3 52.5 108 L 50 109.5 Q 52.3 110.8 49.5 112 L 48 111.5 L 50 110.5 L 48 109.5 L 57 101.5 Q 61.8 95.3 60 82.5 L 59.5 81 Z " /><path fill="rgb(7,7,6)" stroke="rgb(7,7,6)" stroke-width="1" opacity="1" d="M 189 81 L 191 81.5 L 189 82.5 L 189 81 Z " /><path fill="rgb(7,7,6)" stroke="rgb(7,7,6)" stroke-width="1" opacity="1" d="M 42.5 83 L 43.5 85 L 42.5 83 Z " /><path fill="rgb(7,7,6)" stroke="rgb(7,7,6)" stroke-width="1" opacity="1" d="M 27.5 84 L 29 87.5 L 28 87.5 L 27.5 84 Z " /><path fill="rgb(7,7,6)" stroke="rgb(7,7,6)" stroke-width="1" opacity="1" d="M 164.5 84 L 165.5 86 L 164.5 84 Z " /><path fill="rgb(7,7,6)" stroke="rgb(7,7,6)" stroke-width="1" opacity="1" d="M 188.5 84 L 189 95.5 L 188 95.5 L 187 88.5 L 188.5 84 Z " /><path fill="rgb(7,7,6)" stroke="rgb(7,7,6)" stroke-width="1" opacity="1" d="M 0.5 85 L 1 87.5 L 0 87.5 L 0.5 85 Z " /><path fill="rgb(7,7,6)" stroke="rgb(7,7,6)" stroke-width="1" opacity="1" d="M 62.5 85 Q 65.3 86.3 63 87.5 L 62.5 91 L 62.5 85 Z " /><path fill="rgb(7,7,6)" stroke="rgb(7,7,6)" stroke-width="1" opacity="1" d="M 138.5 86 L 139 91.5 L 138 91.5 L 138.5 86 Z " /><path fill="rgb(7,7,6)" stroke="rgb(7,7,6)" stroke-width="1" opacity="1" d="M 45.5 88 L 49 96.5 L 48 96.5 L 45.5 88 Z " /><path fill="rgb(7,7,6)" stroke="rgb(7,7,6)" stroke-width="1" opacity="1" d="M 133.5 89 L 134 95.5 L 133 95.5 L 133.5 89 Z " /><path fill="rgb(7,7,6)" stroke="rgb(7,7,6)" stroke-width="1" opacity="1" d="M 156.5 89 L 157 91.5 L 156 91.5 L 156.5 89 Z " /><path fill="rgb(7,7,6)" stroke="rgb(7,7,6)" stroke-width="1" opacity="1" d="M 31.5 90 L 30.5 92 L 31.5 90 Z " /><path fill="rgb(7,7,6)" stroke="rgb(7,7,6)" stroke-width="1" opacity="1" d="M 159.5 90 L 160 93.5 L 159 93.5 L 159.5 90 Z " /><path fill="rgb(7,7,6)" stroke="rgb(7,7,6)" stroke-width="1" opacity="1" d="M 41.5 91 L 42 94 Q 44.7 95.1 44 92.5 L 45 92.5 L 45 98 L 42.5 98 L 40 99 L 41 101.5 L 40.5 104 L 39 100.5 Q 39.8 98.3 37.5 99 Q 36.3 101.2 35 98.5 L 37 98.5 Q 37.8 96.3 35.5 97 L 35.5 96 L 39 97 L 39 92 L 40.5 92 L 41.5 91 Z M 41 94 L 40 98 L 41 98 L 41 94 Z " /><path fill="rgb(7,7,6)" stroke="rgb(7,7,6)" stroke-width="1" opacity="1" d="M 168.5 91 L 170 93.5 L 169 93.5 L 168.5 91 Z " /><path fill="rgb(7,7,6)" stroke="rgb(7,7,6)" stroke-width="1" opacity="1" d="M 32.5 94 Q 34.8 93.3 34 95.5 L 32.5 94 Z " /><path fill="rgb(7,7,6)" stroke="rgb(7,7,6)" stroke-width="1" opacity="1" d="M 137.5 94 L 138 98.5 L 137 102.5 Q 139.3 103.8 136.5 105 Q 138.1 103.3 135 101.5 L 135.5 96 L 136.5 98 L 137.5 94 Z " /><path fill="rgb(7,7,6)" stroke="rgb(7,7,6)" stroke-width="1" opacity="1" d="M 165 94 L 169 96 L 169 98.5 L 172 97.5 L 171 99.5 L 171.5 101 L 168.5 100 L 167.5 102 L 167 100.5 L 168 97.5 L 167 97.5 L 165 100.5 L 165.5 102 L 164 102.5 L 165.5 105 Q 161.3 103.3 164 101.5 L 163 99.5 L 165 98.5 L 163.5 96 Q 166.1 96.7 165 94 Z " /><path fill="rgb(7,7,6)" stroke="rgb(7,7,6)" stroke-width="1" opacity="1" d="M 183.5 94 L 184 96.5 L 183 96.5 L 183.5 94 Z " /><path fill="rgb(7,7,6)" stroke="rgb(7,7,6)" stroke-width="1" opacity="1" d="M 12.5 95 L 14.5 96 L 16 95.5 L 18 100.5 L 16 99.5 L 15.5 98 L 14 98.5 L 12.5 95 Z " /><path fill="rgb(7,7,6)" stroke="rgb(7,7,6)" stroke-width="1" opacity="1" d="M 139.5 95 L 141 98.5 L 139 97.5 L 139.5 95 Z " /><path fill="rgb(7,7,6)" stroke="rgb(7,7,6)" stroke-width="1" opacity="1" d="M 157.5 96 L 160 96.5 L 159 97.5 L 161.5 101 L 157.5 96 Z " /><path fill="rgb(7,7,6)" stroke="rgb(7,7,6)" stroke-width="1" opacity="1" d="M 49.5 98 L 50 101 L 48 100.5 L 49.5 98 Z " /><path fill="rgb(7,7,6)" stroke="rgb(7,7,6)" stroke-width="1" opacity="1" d="M 173.5 98 L 174 104.5 L 171 105.5 L 171.5 107 L 169 106.5 L 170 104 L 173 102.5 L 173.5 98 Z " /><path fill="rgb(7,7,6)" stroke="rgb(7,7,6)" stroke-width="1" opacity="1" d="M 182.5 98 Q 184.8 97.3 184 99.5 L 182.5 98 Z " /><path fill="rgb(7,7,6)" stroke="rgb(7,7,6)" stroke-width="1" opacity="1" d="M 181.5 100 L 183 102.5 L 182 102.5 L 181.5 101 L 180 101.5 L 181.5 100 Z " /><path fill="rgb(7,7,6)" stroke="rgb(7,7,6)" stroke-width="1" opacity="1" d="M 139.5 101 L 141 103.5 L 139 102.5 L 139.5 101 Z " /><path fill="rgb(7,7,6)" stroke="rgb(7,7,6)" stroke-width="1" opacity="1" d="M 18.5 102 L 20.5 105 Q 18.8 101.9 17 103.5 L 18.5 102 Z " /><path fill="rgb(7,7,6)" stroke="rgb(7,7,6)" stroke-width="1" opacity="1" d="M 49.5 102 L 50 103.5 L 49 106 L 47 105.5 L 49.5 102 Z " /><path fill="rgb(7,7,6)" stroke="rgb(7,7,6)" stroke-width="1" opacity="1" d="M 142.5 102 L 144.5 105 L 142.5 102 Z " /><path fill="rgb(7,7,6)" stroke="rgb(7,7,6)" stroke-width="1" opacity="1" d="M 179.5 103 L 179 104.5 L 177.5 107 L 176 107.5 L 178 111 L 182 110 L 181.5 112 L 174.5 112 Q 170 110 173.5 108 L 173.5 110 L 175.5 111 L 176 109.5 L 175 107.5 L 178 106 L 179.5 103 Z " /><path fill="rgb(7,7,6)" stroke="rgb(7,7,6)" stroke-width="1" opacity="1" d="M 18.5 105 L 23.5 109 L 22.5 106 L 25 108.5 L 24.5 111 L 19.5 112 L 17.5 111 L 16 111.5 L 17 109.5 L 16 106.5 L 17 106.5 L 18.5 109 L 19 106.5 L 18.5 105 Z M 19 109 Q 18 112 22 111 Q 23 108 19 109 Z " /><path fill="rgb(7,7,6)" stroke="rgb(7,7,6)" stroke-width="1" opacity="1" d="M 146.5 106 L 149 108.5 L 148.5 111 L 146.5 112 L 147 110.5 Q 147.8 108.3 145.5 109 L 145.5 108 L 147 107.5 L 146.5 106 Z " /><path fill="rgb(7,7,6)" stroke="rgb(7,7,6)" stroke-width="1" opacity="1" d="M 55.5 109 L 56 110.5 L 53.5 112 L 53.5 111 Q 56 111.7 55.5 109 Z " /><path fill="rgb(7,7,6)" stroke="rgb(7,7,6)" stroke-width="1" opacity="1" d="M 170.5 110 L 171.5 112 L 170.5 110 Z " /><path fill="rgb(7,7,6)" stroke="rgb(7,7,6)" stroke-width="1" opacity="1" d="M 30.5 111 L 38 112.5 L 32.5 113 L 30.5 111 Z " /><path fill="rgb(7,7,6)" stroke="rgb(7,7,6)" stroke-width="1" opacity="1" d="M 166.5 111 L 169 111.5 Q 166.9 114.8 166.5 111 Z " /><path fill="rgb(7,7,6)" stroke="rgb(7,7,6)" stroke-width="1" opacity="1" d="M 64.5 112 L 67 112.5 L 64.5 113 L 64.5 112 Z " /><path fill="rgb(7,7,6)" stroke="rgb(7,7,6)" stroke-width="1" opacity="1" d="M 113.5 112 L 120 112.5 L 113.5 113 L 113.5 112 Z " /><path fill="rgb(7,7,6)" stroke="rgb(7,7,6)" stroke-width="1" opacity="1" d="M 64.5 114 L 68 114.5 L 64.5 115 L 64.5 114 Z " /><path fill="rgb(7,7,6)" stroke="rgb(7,7,6)" stroke-width="1" opacity="1" d="M 69.5 114 Q 72.6 117.4 80 116.5 L 70.5 117 L 70.5 115 L 69.5 114 Z " /><path fill="rgb(7,7,6)" stroke="rgb(7,7,6)" stroke-width="1" opacity="1" d="M 116.5 114 L 120 114.5 L 116.5 115 L 116.5 114 Z " /><path fill="rgb(7,7,6)" stroke="rgb(7,7,6)" stroke-width="1" opacity="1" d="M 129.5 115 L 130.5 117 L 129.5 115 Z " /><path fill="rgb(7,7,6)" stroke="rgb(7,7,6)" stroke-width="1" opacity="1" d="M 96.5 116 L 102.5 120 L 104.5 119 L 104.5 120 L 100 123.5 L 99.5 126 L 99 123.5 L 100 120.5 Q 98.5 117.5 97 120.5 L 94.5 124 L 91.5 125 L 82 120.5 L 84.5 120 L 87 121.5 Q 86.3 119.3 88.5 120 L 88.5 122 L 93.5 121 L 95.5 122 L 95.5 120 Q 98.1 120.8 97 117.5 L 96.5 116 Z " /><path fill="rgb(7,7,6)" stroke="rgb(7,7,6)" stroke-width="1" opacity="1" d="M 101 116 Q 104 115 103 118 Q 100 119 101 116 Z " /><path fill="rgb(7,7,6)" stroke="rgb(7,7,6)" stroke-width="1" opacity="1" d="M 106.5 116 L 112 116.5 L 106.5 117 L 106.5 116 Z " /><path fill="rgb(7,7,6)" stroke="rgb(7,7,6)" stroke-width="1" opacity="1" d="M 114.5 116 L 120 117.5 L 117.5 118 L 114.5 117 L 114.5 116 Z " /><path fill="rgb(7,7,6)" stroke="rgb(7,7,6)" stroke-width="1" opacity="1" d="M 64.5 117 L 78.5 118 L 80 119.5 L 78.5 119 Q 67 117 64 123.5 L 63.5 125 L 63 123.5 L 64 119 L 66.5 120 L 69 118.5 L 64.5 118 L 64.5 117 Z " /><path fill="rgb(7,7,6)" stroke="rgb(7,7,6)" stroke-width="1" opacity="1" d="M 106.5 118 Q 114.8 116.7 118.5 120 L 120 119.5 Q 119.3 121.8 121.5 121 L 122.5 123 Q 117.8 117.7 106.5 119 L 106.5 118 Z " /><path fill="rgb(7,7,6)" stroke="rgb(7,7,6)" stroke-width="1" opacity="1" d="M 129.5 118 L 130.5 121 L 133 121.5 L 127 125 Q 125.5 121.2 128.5 122 L 128.5 121 L 127 120.5 L 129 120 L 129.5 118 Z " /><path fill="rgb(7,7,6)" stroke="rgb(7,7,6)" stroke-width="1" opacity="1" d="M 133.5 118 L 136 118.5 L 132.5 120 L 133.5 118 Z " /><path fill="rgb(7,7,6)" stroke="rgb(7,7,6)" stroke-width="1" opacity="1" d="M 123.5 120 L 124.5 122 L 123.5 120 Z " /><path fill="rgb(7,7,6)" stroke="rgb(7,7,6)" stroke-width="1" opacity="1" d="M 58.5 121 L 59 124.5 L 58 124.5 L 58.5 121 Z " /><path fill="rgb(7,7,6)" stroke="rgb(7,7,6)" stroke-width="1" opacity="1" d="M 61.5 121 L 62 123.5 L 61 123.5 L 61.5 121 Z " /><path fill="rgb(7,7,6)" stroke="rgb(7,7,6)" stroke-width="1" opacity="1" d="M 135 124 Q 138.3 122.7 137 127.5 Q 135.5 130.5 134 127.5 L 135 124 Z " /><path fill="rgb(7,7,6)" stroke="rgb(7,7,6)" stroke-width="1" opacity="1" d="M 62.5 126 L 63 130.5 L 62 130.5 L 62.5 126 Z " /><path fill="rgb(7,7,6)" stroke="rgb(7,7,6)" stroke-width="1" opacity="1" d="M 98.5 127 L 99 130 Q 95.3 128.7 97 134.5 L 96 134.5 L 95.5 132 L 95 135 L 92 133.5 L 94 133.5 L 98.5 127 Z " /><path fill="rgb(7,7,6)" stroke="rgb(7,7,6)" stroke-width="1" opacity="1" d="M 56.5 128 L 57 131.5 L 56 131.5 L 56.5 128 Z " /><path fill="rgb(7,7,6)" stroke="rgb(7,7,6)" stroke-width="1" opacity="1" d="M 58.5 128 L 59 130.5 L 58 130.5 L 58.5 128 Z " /><path fill="rgb(7,7,6)" stroke="rgb(7,7,6)" stroke-width="1" opacity="1" d="M 133.5 129 L 133.5 131 L 135 131.5 L 132.5 133 Q 131.3 130.8 130 133.5 L 133 135.5 L 131.5 135 L 128 133.5 L 133.5 129 Z " /><path fill="rgb(7,7,6)" stroke="rgb(7,7,6)" stroke-width="1" opacity="1" d="M 68 131 Q 73.5 129.8 75 133.5 L 73 134 Q 74 137 71 136 L 69.5 132 L 68 132.5 L 68 131 Z " /><path fill="rgb(7,7,6)" stroke="rgb(7,7,6)" stroke-width="1" opacity="1" d="M 98 131 Q 100.7 129.9 100 132.5 L 102.5 136 L 100 135.5 L 100.5 134 Q 98.3 133.3 99 135.5 L 98 135.5 L 98 131 Z " /><path fill="rgb(7,7,6)" stroke="rgb(7,7,6)" stroke-width="1" opacity="1" d="M 105.5 131 Q 109.3 130.3 110 132.5 L 111 134.5 L 111 152.5 L 110 152.5 L 109.5 144 L 109 156.5 L 107.5 158 L 105 153.5 L 106 153.5 L 107.5 156 L 108 136.5 L 109 134 L 107 134.5 L 107 151.5 L 106 151.5 L 105.5 135 L 104 135.5 L 105.5 133 L 104 132.5 L 105.5 131 Z M 110 136 L 109 140 L 110 140 L 110 136 Z " /><path fill="rgb(7,7,6)" stroke="rgb(7,7,6)" stroke-width="1" opacity="1" d="M 63.5 132 L 64.5 134 L 63.5 132 Z " /><path fill="rgb(7,7,6)" stroke="rgb(7,7,6)" stroke-width="1" opacity="1" d="M 69.5 134 L 68.5 136 L 69.5 134 Z " /><path fill="rgb(7,7,6)" stroke="rgb(7,7,6)" stroke-width="1" opacity="1" d="M 80.5 134 Q 82.3 136.7 88.5 135 L 90.5 134 L 91.5 136 L 89.5 135 L 89 139.5 L 90 143.5 L 89 144.5 L 89 155.5 L 91 159.5 L 90 159.5 L 89.5 157 L 89 160 L 75.5 160 L 74.5 159 L 73 159.5 L 74 156.5 L 72 156.5 L 73 153.5 L 73 151.5 L 73.5 148 L 75 152.5 L 74 155.5 L 75 159 L 88 159 L 88 138.5 L 81.5 136 L 80.5 134 Z " /><path fill="rgb(7,7,6)" stroke="rgb(7,7,6)" stroke-width="1" opacity="1" d="M 116.5 134 L 124.5 135 L 126.5 134 L 129 135.5 L 127 136.5 Q 127.8 134.3 125.5 135 L 126 136.5 L 127 138.5 L 124.5 140 L 125 138.5 L 124.5 137 L 122.5 137 Q 116.6 137.2 116.5 134 Z " /><path fill="rgb(7,7,6)" stroke="rgb(7,7,6)" stroke-width="1" opacity="1" d="M 74.5 136 L 75 138.5 L 74 144 L 72 143.5 L 74.5 136 Z " /><path fill="rgb(7,7,6)" stroke="rgb(7,7,6)" stroke-width="1" opacity="1" d="M 94.5 136 L 95 139.5 L 94 139.5 L 94.5 136 Z " /><path fill="rgb(7,7,6)" stroke="rgb(7,7,6)" stroke-width="1" opacity="1" d="M 127.5 141 L 128 142.5 Q 124.2 144.3 126 151.5 L 127 155 L 124 153.5 L 125 148.5 L 124 144.5 L 125 142 L 127.5 141 Z " /><path fill="rgb(7,7,6)" stroke="rgb(7,7,6)" stroke-width="1" opacity="1" d="M 91.5 142 Q 95.8 143.8 94 151.5 L 93 151.5 L 93 144.5 L 91 144 L 91.5 142 Z " /><path fill="rgb(7,7,6)" stroke="rgb(7,7,6)" stroke-width="1" opacity="1" d="M 93.5 154 L 94 159.5 L 93 159.5 L 93.5 154 Z " /><path fill="rgb(7,7,6)" stroke="rgb(7,7,6)" stroke-width="1" opacity="1" d="M 110.5 158 L 111.5 159 L 123.5 159 L 126 158 L 125.5 160 L 123.5 160 L 111.5 160 L 110.5 159 L 109 159.5 L 110.5 158 Z " /><path fill="rgb(243,206,229)" stroke="rgb(243,206,229)" stroke-width="1" opacity="1" d="M 69.5 120 L 78.5 120 L 90.5 126 L 93.5 126 L 97 123.5 Q 96.3 121.3 98.5 122 L 98 123.5 L 94.5 131 Q 91 135 82.5 134 L 78 133 L 79.5 136 L 87 139.5 L 87 158 L 76 158 L 76 132.5 L 74.5 131 L 68.5 130 L 66.5 134 Q 63.2 132.3 64 126.5 L 66 122 L 69.5 120 Z " /><path fill="rgb(243,206,229)" stroke="rgb(243,206,229)" stroke-width="1" opacity="1" d="M 106.5 120 L 114.5 120 L 126.5 126 L 129.5 126 L 134 122.5 L 134.5 121 L 135 123.5 L 130.5 131 Q 126.7 135.2 117.5 134 L 114 133 L 115.5 136 L 123 139.5 L 124 147.5 L 123 149.5 L 124 153.5 L 123 158 L 112 158 L 112 132.5 Q 109.7 129 104 130 L 103 132.5 L 103.5 134 L 101 132.5 L 100 126.5 L 102 122 L 106.5 120 Z " /><path fill="rgb(26,174,102)" stroke="rgb(26,174,102)" stroke-width="1" opacity="1" d="M 31.5 67 L 43.5 67 Q 52.1 69.4 56 76.5 Q 60.6 82.3 59 94.5 Q 56.9 102.9 50.5 107 L 50 105.5 Q 52.8 103.8 51 97.5 Q 47.1 84.4 38.5 76 L 36 74.5 Q 36.8 72.3 34.5 73 L 28.5 70 L 26.5 71 L 27.5 69 L 31.5 67 Z " /><path fill="rgb(26,174,102)" stroke="rgb(26,174,102)" stroke-width="1" opacity="1" d="M 155.5 67 L 167.5 67 Q 175.6 69.9 180 76.5 Q 184.7 82.3 183 94.5 Q 180.5 102.5 174.5 107 L 173 106.5 Q 176.5 105 175 98.5 Q 170.9 84.1 161.5 75 L 151 69.5 L 155.5 67 Z " /><path fill="rgb(26,174,102)" stroke="rgb(26,174,102)" stroke-width="1" opacity="1" d="M 149.5 70 L 148 72.5 L 148 79.5 L 152 90.5 L 161 103 L 166.5 107 L 172 108.5 Q 167.1 112.6 156.5 111 Q 148.1 108.9 144 102.5 Q 137.6 96.9 140 82.5 L 146 72 L 149.5 70 Z " /><path fill="rgb(26,174,102)" stroke="rgb(26,174,102)" stroke-width="1" opacity="1" d="M 24.5 71 L 25 72.5 Q 22.5 74 24 79.5 Q 28.8 96.7 41.5 106 L 47.5 108 L 49 107.5 Q 44.3 112.8 32.5 111 Q 23.8 108.2 19 101.5 Q 14.3 95.7 16 83.5 Q 18.2 75.2 24.5 71 Z " /><path fill="rgb(26,174,102)" stroke="rgb(26,174,102)" stroke-width="1" opacity="1" d="M 98.5 120 L 99 122 L 97 121.5 L 98.5 120 Z " /><path fill="rgb(26,174,102)" stroke="rgb(26,174,102)" stroke-width="1" opacity="1" d="M 134.5 120 L 134 121.5 L 131.5 125 L 133 122.5 L 134.5 120 Z " /><path fill="rgb(26,174,102)" stroke="rgb(26,174,102)" stroke-width="1" opacity="1" d="M 96.5 123 L 95.5 125 L 96.5 123 Z " /><path fill="rgb(26,174,102)" stroke="rgb(26,174,102)" stroke-width="1" opacity="1" d="M 90.5 125 L 94 125.5 L 90.5 126 L 90.5 125 Z " /><path fill="rgb(26,174,102)" stroke="rgb(26,174,102)" stroke-width="1" opacity="1" d="M 126.5 125 L 130 125.5 L 126.5 126 L 126.5 125 Z " /><path fill="rgb(26,174,102)" stroke="rgb(26,174,102)" stroke-width="1" opacity="1" d="M 133.5 126 L 134 127.5 L 132 128.5 L 133.5 126 Z " /><path fill="rgb(26,174,102)" stroke="rgb(26,174,102)" stroke-width="1" opacity="1" d="M 67.5 131 L 68 135 L 65 133.5 L 67 133.5 L 67.5 131 Z " /><path fill="rgb(26,174,102)" stroke="rgb(26,174,102)" stroke-width="1" opacity="1" d="M 74.5 131 L 76 132.5 L 76 158 L 87 158 L 87 140.5 L 88 140.5 L 88 157.5 L 86.5 159 L 76.5 159 L 75 157.5 L 75 132.5 L 74.5 131 Z " /><path fill="rgb(26,174,102)" stroke="rgb(26,174,102)" stroke-width="1" opacity="1" d="M 111.5 132 L 112 158 L 123 158 L 123 154.5 L 124 154.5 Q 124.8 158.3 122.5 159 L 112.5 159 L 111 157.5 L 111.5 132 Z " /><path fill="rgb(26,174,102)" stroke="rgb(26,174,102)" stroke-width="1" opacity="1" d="M 122.5 138 Q 125 139 124 143.5 L 123 143.5 L 122.5 138 Z " /></svg>